<svg id="visual" viewBox="0 0 960 540" width="960" height="540" xmlns="http://www.w3.org/2000/svg" xmlns:xlink="http://www.w3.org/1999/xlink" version="1.1"><rect x="0" y="0" width="960" height="540" fill="#95c2e1"></rect><defs><linearGradient id="grad1_0" x1="43.8%" y1="100%" x2="100%" y2="0%"><stop offset="14.444444444444446%" stop-color="#74a7d1" stop-opacity="1"></stop><stop offset="85.55555555555554%" stop-color="#74a7d1" stop-opacity="1"></stop></linearGradient></defs><defs><linearGradient id="grad1_1" x1="43.8%" y1="100%" x2="100%" y2="0%"><stop offset="14.444444444444446%" stop-color="#74a7d1" stop-opacity="1"></stop><stop offset="85.55555555555554%" stop-color="#95c2e1" stop-opacity="1"></stop></linearGradient></defs><defs><linearGradient id="grad2_0" x1="0%" y1="100%" x2="56.3%" y2="0%"><stop offset="14.444444444444446%" stop-color="#74a7d1" stop-opacity="1"></stop><stop offset="85.55555555555554%" stop-color="#74a7d1" stop-opacity="1"></stop></linearGradient></defs><defs><linearGradient id="grad2_1" x1="0%" y1="100%" x2="56.3%" y2="0%"><stop offset="14.444444444444446%" stop-color="#95c2e1" stop-opacity="1"></stop><stop offset="85.55555555555554%" stop-color="#74a7d1" stop-opacity="1"></stop></linearGradient></defs><g transform="translate(960, 540)"><path d="M-419 0C-385.3 -45.4 -351.5 -90.8 -328.9 -136.2C-306.3 -181.7 -294.7 -227.2 -268.7 -268.7C-242.7 -310.2 -202.2 -347.6 -155 -374.2C-107.8 -400.7 -53.9 -416.4 0 -432L0 0Z" fill="#84b5d9"></path><path d="M-209.5 0C-192.6 -22.7 -175.8 -45.4 -164.5 -68.1C-153.1 -90.8 -147.4 -113.6 -134.4 -134.4C-121.3 -155.1 -101.1 -173.8 -77.5 -187.1C-53.9 -200.4 -26.9 -208.2 0 -216L0 0Z" fill="#74a7d1"></path></g><g transform="translate(0, 0)"><path d="M409 0C374 41.1 339.1 82.1 327.1 135.5C315.1 188.8 326 254.5 302.6 302.6C279.2 350.8 221.5 381.3 165.3 399.1C109.2 416.9 54.6 422 0 427L0 0Z" fill="#84b5d9"></path><path d="M204.5 0C187 20.5 169.5 41.1 163.5 67.7C157.5 94.4 163 127.3 151.3 151.3C139.6 175.4 110.7 190.7 82.7 199.6C54.6 208.5 27.3 211 0 213.5L0 0Z" fill="#74a7d1"></path></g></svg>